<svg width="13" height="13" viewBox="0 0 13 13" fill="none" xmlns="http://www.w3.org/2000/svg">
<g clip-path="url(#clip0_6471_448)">
<path d="M4.92845 8.24529C4.92845 8.24529 4.09216 11.2253 0 9.43459C0 9.43459 2.10867 5.26314 4.92845 8.24529Z" fill="url(#paint0_linear_6471_448)"/>
<path d="M0 9.43459C1.34469 8.87681 4.92845 8.24529 4.92845 8.24529C2.10867 5.26314 0 9.43459 0 9.43459Z" fill="url(#paint1_linear_6471_448)"/>
<path d="M6.72836 7.86349C6.72836 7.86349 9.09994 9.85232 5.78349 12.8446C5.78352 12.8446 2.84984 9.20577 6.72836 7.86349Z" fill="url(#paint2_linear_6471_448)"/>
<path d="M5.7835 12.8446C5.82869 11.3896 6.72836 7.86356 6.72836 7.86356C2.84985 9.20578 5.7835 12.8446 5.7835 12.8446Z" fill="url(#paint3_linear_6471_448)"/>
<path d="M8.14313 8.11236C8.14313 8.11236 8.81687 11.1333 13 9.56674C13 9.56671 11.1202 5.28722 8.14313 8.11236Z" fill="url(#paint4_linear_6471_448)"/>
<path d="M13 9.56672C11.6875 8.93696 8.14319 8.11235 8.14319 8.11235C11.1203 5.28723 13 9.56672 13 9.56672Z" fill="url(#paint5_linear_6471_448)"/>
<path d="M4.92846 8.2453C4.2052 7.48038 3.52875 7.18623 2.92259 7.17148L2.28882 8.66125L3.44153 9.81396C3.54459 9.77381 3.64118 9.72875 3.73134 9.67974C4.66881 9.17013 4.92846 8.2453 4.92846 8.2453Z" fill="url(#paint6_linear_6471_448)"/>
<path d="M6.72833 7.86349C5.30341 8.35663 4.79799 9.15971 4.7287 9.97848L6.66575 11.9155C8.61724 9.44772 6.72833 7.86349 6.72833 7.86349Z" fill="url(#paint7_linear_6471_448)"/>
<path d="M8.14313 8.11236C8.14313 8.11236 8.81687 11.1333 13 9.56674C13 9.56671 11.1202 5.28722 8.14313 8.11236Z" fill="url(#paint8_linear_6471_448)"/>
<path d="M5.80031 4.86325C5.80031 4.86325 4.32869 2.10012 5.25733 1.94468C6.18597 1.78924 5.39718 1.09102 6.41748 1.26279C7.43778 1.43455 6.99756 0.921841 8.15887 1.10679C9.32019 1.29173 10.4339 3.09096 9.05859 4.12241C8.11038 4.83355 6.63231 6.85286 5.80031 4.86325Z" fill="url(#paint9_radial_6471_448)"/>
<path d="M5.27279 2.33767C5.25507 2.31173 5.23265 2.28928 5.2067 2.27158L5.19929 2.26417L5.19964 2.26716C5.16085 2.24254 5.11497 2.22809 5.06558 2.22809C5.03064 2.22809 4.99764 2.23573 4.96742 2.24871C4.96709 2.25033 4.96674 2.25198 4.96641 2.25361C4.95752 2.29761 4.95241 2.34522 4.95082 2.39605C4.95076 2.398 4.95064 2.39993 4.95059 2.40189C4.94993 2.42756 4.9501 2.45399 4.95109 2.48116C4.95117 2.48288 4.95125 2.48464 4.95132 2.48636C4.95356 2.54189 4.95914 2.60031 4.96767 2.6611C4.9679 2.6628 4.96816 2.66453 4.96839 2.66625C4.98172 2.75987 5.00183 2.85889 5.02719 2.96106C5.23659 3.80469 5.80031 4.86333 5.80031 4.86333C6.35888 6.1991 7.20866 5.72788 7.99379 5.05873L5.27279 2.33767ZM5.22595 2.67151C5.23255 2.66603 5.2388 2.66013 5.24481 2.65402L5.25149 2.71125C5.24301 2.69812 5.2344 2.68456 5.22595 2.67151Z" fill="url(#paint10_linear_6471_448)"/>
<path d="M6.67946 5.66167C6.80902 5.65928 6.93298 5.60855 7.03261 5.5257C7.26628 5.33141 7.90374 4.76343 8.2097 4.11343C8.58845 3.3088 7.83315 4.49015 7.37508 4.77759C6.91701 5.06504 7.60789 4.17182 7.56028 3.33081C7.51267 2.4898 7.00847 4.55558 6.69015 4.78087C6.37183 5.00616 6.66437 4.21476 6.47633 3.82964C6.28829 3.44451 6.1527 4.55113 6.19391 4.77556C6.2351 4.99999 5.77286 4.24294 5.60358 4.20107C5.43428 4.1592 6.0356 5.24775 6.31447 5.51714C6.43398 5.6326 6.56672 5.66375 6.67946 5.66167Z" fill="url(#paint11_linear_6471_448)"/>
<path d="M6.12762 5.37964C6.12762 5.37964 6.01217 2.8781 4.16488 2.60871C2.31758 2.33931 3.16426 3.22448 2.70245 3.30144C2.24062 3.37842 1.2785 3.22445 1.20154 4.60992C1.12455 5.99541 6.28154 7.45783 6.12762 5.37964Z" fill="url(#paint12_radial_6471_448)"/>
<path d="M5.45206 6.31872C5.79418 6.21 5.97341 5.83374 5.85461 5.49503C5.70181 5.05945 5.45999 4.41572 5.27027 4.11053C4.96949 3.62668 5.23104 4.54207 5.25719 4.84287C5.28334 5.14367 4.73412 4.21514 4.21099 3.90128C3.68792 3.58743 3.81868 4.07127 4.21099 4.30667C4.60331 4.54207 4.21099 4.5813 3.63557 4.35898C3.06014 4.13665 3.15172 4.50281 4.21099 4.98671C5.27027 5.47055 5.34872 5.99367 5.00872 5.79751C4.66871 5.60136 4.10636 5.49673 3.84484 5.56211C3.69978 5.59839 4.39942 6.09714 5.0403 6.3157C5.16807 6.35927 5.30647 6.36336 5.43556 6.32388C5.4411 6.32218 5.44661 6.32045 5.45206 6.31872Z" fill="url(#paint13_linear_6471_448)"/>
<path d="M5.78053 6.45535C5.64188 6.26119 5.44832 6.11705 5.23012 6.03293C4.76793 5.85476 3.69802 5.54853 2.57294 5.97001C1.0759 6.53084 1.85029 7.2661 2.09676 7.37226C2.34323 7.47842 2.00487 7.97562 2.24405 8.56077C2.48323 9.14592 3.25691 9.02369 3.55878 9.41263C3.86065 9.80156 3.80961 10.1367 4.48703 9.99983C5.16446 9.86293 5.3934 10.5151 5.88636 9.21836C6.29718 8.13769 6.22591 7.0789 5.78053 6.45535Z" fill="url(#paint14_radial_6471_448)"/>
<path d="M7.04681 5.35466C7.04681 5.35466 8.66531 3.68931 10.0902 4.07873C10.6024 4.27792 10.5299 4.87421 10.9222 4.98317C11.3144 5.09212 11.578 6.00306 11.1215 6.21768C10.665 6.43231 11.2007 7.36194 10.64 7.71517C10.0793 8.06843 5.34841 6.80499 7.04681 5.35466Z" fill="url(#paint15_radial_6471_448)"/>
<path d="M10.646 7.7109L7.71972 4.78461C7.31095 5.0829 7.04676 5.35465 7.04676 5.35465C5.67521 6.52585 8.49634 7.57514 9.92832 7.7496C9.97067 7.75475 10.0118 7.75914 10.0515 7.76275C10.0521 7.7628 10.0527 7.76285 10.0532 7.7629C10.0924 7.76646 10.1303 7.76922 10.1667 7.7712C10.1677 7.77126 10.1686 7.77131 10.1696 7.77136C10.2054 7.77329 10.2398 7.77443 10.2726 7.77484C10.2739 7.77486 10.2753 7.77486 10.2766 7.77489C10.3089 7.77519 10.3396 7.77476 10.3686 7.77354C10.3702 7.77346 10.3718 7.77341 10.3733 7.77334C10.3875 7.7727 10.4012 7.77189 10.4146 7.7709C10.4159 7.7708 10.4171 7.7707 10.4184 7.7706C10.4307 7.76963 10.4426 7.76851 10.4542 7.76719C10.4557 7.76701 10.4572 7.76686 10.4587 7.76671C10.4708 7.76531 10.4824 7.76374 10.4936 7.76196C10.4955 7.76166 10.4973 7.76135 10.4992 7.76105C10.5093 7.7594 10.519 7.75757 10.5284 7.75561C10.5296 7.75536 10.5309 7.75513 10.5321 7.75488C10.5422 7.75272 10.5517 7.75033 10.5608 7.74782C10.5628 7.74729 10.5647 7.74673 10.5666 7.74617C10.5749 7.74376 10.583 7.74119 10.5905 7.7385C10.5913 7.73825 10.5921 7.73799 10.5928 7.73771C10.6008 7.73479 10.6082 7.73162 10.6153 7.72835C10.617 7.72756 10.6187 7.72677 10.6203 7.72596C10.6272 7.72256 10.6339 7.71905 10.6398 7.71527C10.6398 7.71527 10.6399 7.71524 10.6399 7.71524C10.6421 7.7138 10.6439 7.71227 10.646 7.7109Z" fill="url(#paint16_linear_6471_448)"/>
<path d="M6.75637 5.97508C6.78582 5.84889 6.86133 5.73828 6.9632 5.65815C7.20205 5.47029 7.8908 4.9657 8.59041 4.80244C9.45643 4.60033 8.14326 5.09187 7.76636 5.47971C7.38946 5.86755 8.40745 5.37873 9.21989 5.60115C10.0323 5.82357 7.90679 5.88464 7.61993 6.1488C7.33307 6.41299 8.16811 6.29238 8.5054 6.5568C8.84269 6.82122 7.73216 6.72237 7.52134 6.63516C7.31052 6.54794 7.95412 7.15825 7.95966 7.33258C7.96522 7.50692 7.02645 6.69119 6.82135 6.36218C6.73347 6.22119 6.73078 6.08484 6.75637 5.97508Z" fill="url(#paint17_linear_6471_448)"/>
<path d="M6.69371 6.18742C6.69371 6.18742 8.5681 5.58201 9.67064 6.89602C10.052 7.43588 9.71655 7.48448 10.0609 8.00161C10.4052 8.51874 10.1028 8.96955 9.63108 9.23996C9.15937 9.51037 9.05918 10.5438 8.22754 10.3639C7.39589 10.1839 7.37004 9.81155 6.99632 9.96389C6.62259 10.1162 6.08672 10.1181 5.89693 9.05925C5.70713 8.00044 5.98458 6.38834 6.69371 6.18742Z" fill="url(#paint18_radial_6471_448)"/>
<path d="M5.74038 6.38982C5.65001 6.29697 5.52821 6.24121 5.39964 6.22519C5.0981 6.18761 4.24774 6.11108 3.56427 6.33249C2.71825 6.60653 4.09664 6.3495 4.61966 6.48707C5.14268 6.62463 4.01851 6.73158 3.43755 7.34151C2.85658 7.95144 4.70848 6.90631 5.09053 6.98444C5.47261 7.06257 4.69517 7.39044 4.54285 7.79102C4.39053 8.19161 5.29056 7.53361 5.42607 7.35004C5.5616 7.16649 5.32552 8.02147 5.41076 8.17363C5.49599 8.32577 5.87881 7.14252 5.8846 6.75486C5.88706 6.58875 5.81899 6.47059 5.74038 6.38982Z" fill="url(#paint19_linear_6471_448)"/>
<path d="M6.25241 6.64882C6.3363 6.2998 6.69873 6.09401 7.04511 6.18821C7.49053 6.30935 8.14995 6.50437 8.46797 6.67167C8.97218 6.93695 8.04034 6.74177 7.73847 6.73725C7.4366 6.73273 8.2247 7.21896 8.5753 7.7182C8.92589 8.21743 8.50971 8.05508 8.24677 7.68064C7.98385 7.30621 7.82437 7.61493 8.33746 8.31993C8.70045 8.8187 8.19985 8.75068 7.58973 7.80264C6.95951 6.82335 6.50596 6.72816 6.69801 7.07048C6.91389 7.45533 7.15748 7.74356 7.11102 8.00912C7.08525 8.15641 6.54897 7.68278 6.28501 7.05923C6.2324 6.93492 6.21836 6.79718 6.2485 6.66558C6.24977 6.65999 6.25109 6.6544 6.25241 6.64882Z" fill="url(#paint20_linear_6471_448)"/>
<path d="M10.0335 7.95901C10.0308 7.95461 10.0282 7.95035 10.0256 7.94603C10.0198 7.93656 10.0142 7.92722 10.0088 7.91808C10.0061 7.91336 10.0033 7.90866 10.0007 7.90401C9.99544 7.89472 9.99049 7.8856 9.98571 7.87664C9.98378 7.87301 9.98168 7.86928 9.97982 7.8657C9.97388 7.8543 9.96837 7.8432 9.96314 7.83228C9.96055 7.82687 9.95819 7.82162 9.95578 7.81634C9.95309 7.81042 9.9504 7.80451 9.94791 7.79874C9.94542 7.79298 9.94298 7.78726 9.9407 7.78165C9.93864 7.77663 9.93671 7.77168 9.93481 7.76677C9.9326 7.76104 9.93026 7.75525 9.92826 7.74964V7.74961C9.8188 7.44802 9.97904 7.33262 9.67064 6.89605C8.5681 5.58204 6.69371 6.18745 6.69371 6.18745C6.38745 6.27421 5.9744 6.43697 5.83203 6.89192L8.99555 10.0635C9.00947 10.0459 9.0231 10.0279 9.03648 10.0096C9.03666 10.0094 9.03687 10.0091 9.03704 10.0089C9.10778 9.91198 9.17159 9.806 9.23522 9.70301C9.24129 9.69319 9.24738 9.68339 9.25347 9.67359C9.25731 9.66744 9.26112 9.6613 9.26495 9.6552C9.27541 9.6385 9.2859 9.62197 9.29643 9.60559C9.29811 9.603 9.29981 9.60044 9.30146 9.59787C9.31192 9.58175 9.32241 9.5658 9.333 9.55014C9.33472 9.5476 9.33647 9.54503 9.3382 9.54249C9.34887 9.52683 9.35961 9.51144 9.37047 9.49636C9.37207 9.49415 9.37367 9.49189 9.3753 9.48968C9.38662 9.47412 9.3981 9.45886 9.40973 9.444C9.41084 9.44258 9.41196 9.44111 9.4131 9.43966C9.42572 9.42372 9.43852 9.4082 9.45157 9.39327C9.45208 9.39269 9.45259 9.39216 9.45309 9.39157C9.46584 9.37705 9.47884 9.36308 9.49209 9.34965C9.49336 9.34836 9.49466 9.34711 9.49595 9.34582C9.50867 9.3331 9.52165 9.32094 9.5349 9.30938C9.5364 9.30809 9.5379 9.30677 9.53942 9.30547C9.55285 9.29395 9.56662 9.28308 9.58068 9.27285C9.5819 9.27196 9.58309 9.27104 9.58434 9.27018C9.59952 9.25931 9.61509 9.24921 9.63108 9.24002C9.86694 9.10481 10.0605 8.92451 10.152 8.71336C10.1692 8.67378 10.1827 8.6331 10.1923 8.59144C10.1955 8.57755 10.1983 8.56356 10.2006 8.54944C10.2052 8.52126 10.2079 8.49259 10.2088 8.46357C10.2129 8.31841 10.1685 8.16328 10.0608 8.00166C10.0512 7.98701 10.0422 7.9729 10.0335 7.95901Z" fill="url(#paint21_linear_6471_448)"/>
<path d="M3.72415 0.941523C3.72415 0.941523 5.2048 3.41975 5.24967 4.72097C5.29453 6.02218 5.53882 6.93053 6.10139 7.00196C6.66395 7.0734 7.20134 6.20995 6.33742 4.55516C5.47351 2.90038 4.26228 1.25403 3.90722 0.788088C3.55215 0.322145 3.45567 0.636683 3.72415 0.941523Z" fill="url(#paint22_linear_6471_448)"/>
<path d="M3.68081 1.1653C3.9597 1.1653 4.18578 0.93922 4.18578 0.660334C4.18578 0.381447 3.9597 0.155365 3.68081 0.155365C3.40192 0.155365 3.17584 0.381447 3.17584 0.660334C3.17584 0.93922 3.40192 1.1653 3.68081 1.1653Z" fill="url(#paint23_radial_6471_448)"/>
<path d="M3.93417 1.90471C4.07266 1.90471 4.18493 1.79245 4.18493 1.65396C4.18493 1.51547 4.07266 1.4032 3.93417 1.4032C3.79568 1.4032 3.68341 1.51547 3.68341 1.65396C3.68341 1.79245 3.79568 1.90471 3.93417 1.90471Z" fill="url(#paint24_radial_6471_448)"/>
<path d="M4.66372 1.79894C4.80221 1.79894 4.91448 1.68667 4.91448 1.54818C4.91448 1.40969 4.80221 1.29742 4.66372 1.29742C4.52523 1.29742 4.41296 1.40969 4.41296 1.54818C4.41296 1.68667 4.52523 1.79894 4.66372 1.79894Z" fill="url(#paint25_radial_6471_448)"/>
<path d="M4.35702 2.60271C4.49551 2.60271 4.60778 2.49044 4.60778 2.35195C4.60778 2.21346 4.49551 2.1012 4.35702 2.1012C4.21853 2.1012 4.10626 2.21346 4.10626 2.35195C4.10626 2.49044 4.21853 2.60271 4.35702 2.60271Z" fill="url(#paint26_radial_6471_448)"/>
<path d="M5.06564 2.72967C5.20413 2.72967 5.3164 2.6174 5.3164 2.47891C5.3164 2.34042 5.20413 2.22815 5.06564 2.22815C4.92715 2.22815 4.81488 2.34042 4.81488 2.47891C4.81488 2.6174 4.92715 2.72967 5.06564 2.72967Z" fill="url(#paint27_radial_6471_448)"/>
</g>
<defs>
<linearGradient id="paint0_linear_6471_448" x1="-0.895978" y1="8.81306" x2="6.83911" y2="8.32264" gradientUnits="userSpaceOnUse">
<stop offset="0.003" stop-color="#FFE000"/>
<stop offset="0.018" stop-color="#FCE000"/>
<stop offset="0.319" stop-color="#C5DD00"/>
<stop offset="0.464" stop-color="#AFDC00"/>
<stop offset="0.55" stop-color="#A7D200"/>
<stop offset="0.695" stop-color="#93B800"/>
<stop offset="0.879" stop-color="#718E00"/>
<stop offset="1" stop-color="#586E00"/>
</linearGradient>
<linearGradient id="paint1_linear_6471_448" x1="1.76097" y1="7.48027" x2="3.06375" y2="9.99941" gradientUnits="userSpaceOnUse">
<stop stop-color="#AFDC00" stop-opacity="0"/>
<stop offset="0.472" stop-color="#84A600" stop-opacity="0.472"/>
<stop offset="1" stop-color="#586E00"/>
</linearGradient>
<linearGradient id="paint2_linear_6471_448" x1="4.84793" y1="13.405" x2="7.58551" y2="6.15373" gradientUnits="userSpaceOnUse">
<stop offset="0.003" stop-color="#FFE000"/>
<stop offset="0.018" stop-color="#FCE000"/>
<stop offset="0.319" stop-color="#C5DD00"/>
<stop offset="0.464" stop-color="#AFDC00"/>
<stop offset="0.55" stop-color="#A7D200"/>
<stop offset="0.695" stop-color="#93B800"/>
<stop offset="0.879" stop-color="#718E00"/>
<stop offset="1" stop-color="#586E00"/>
</linearGradient>
<linearGradient id="paint3_linear_6471_448" x1="4.7268" y1="10.4352" x2="7.55895" y2="10.2851" gradientUnits="userSpaceOnUse">
<stop stop-color="#AFDC00" stop-opacity="0"/>
<stop offset="0.472" stop-color="#84A600" stop-opacity="0.472"/>
<stop offset="1" stop-color="#586E00"/>
</linearGradient>
<linearGradient id="paint4_linear_6471_448" x1="13.9285" y1="8.99465" x2="6.23116" y2="8.0862" gradientUnits="userSpaceOnUse">
<stop offset="0.003" stop-color="#FFE000"/>
<stop offset="0.018" stop-color="#FCE000"/>
<stop offset="0.319" stop-color="#C5DD00"/>
<stop offset="0.464" stop-color="#AFDC00"/>
<stop offset="0.55" stop-color="#A7D200"/>
<stop offset="0.695" stop-color="#93B800"/>
<stop offset="0.879" stop-color="#718E00"/>
<stop offset="1" stop-color="#586E00"/>
</linearGradient>
<linearGradient id="paint5_linear_6471_448" x1="11.3475" y1="7.51942" x2="9.91014" y2="9.96439" gradientUnits="userSpaceOnUse">
<stop stop-color="#AFDC00" stop-opacity="0"/>
<stop offset="0.472" stop-color="#84A600" stop-opacity="0.472"/>
<stop offset="1" stop-color="#586E00"/>
</linearGradient>
<linearGradient id="paint6_linear_6471_448" x1="4.84525" y1="11.1671" x2="3.18766" y2="7.52972" gradientUnits="userSpaceOnUse">
<stop stop-color="#AFDC00" stop-opacity="0"/>
<stop offset="0.472" stop-color="#84A600" stop-opacity="0.472"/>
<stop offset="1" stop-color="#586E00"/>
</linearGradient>
<linearGradient id="paint7_linear_6471_448" x1="8.32649" y1="11.5169" x2="5.25091" y2="8.44137" gradientUnits="userSpaceOnUse">
<stop stop-color="#AFDC00" stop-opacity="0"/>
<stop offset="0.472" stop-color="#84A600" stop-opacity="0.472"/>
<stop offset="1" stop-color="#586E00"/>
</linearGradient>
<linearGradient id="paint8_linear_6471_448" x1="11.4581" y1="9.50966" x2="9.69574" y2="8.07409" gradientUnits="userSpaceOnUse">
<stop stop-color="#AFDC00" stop-opacity="0"/>
<stop offset="0.472" stop-color="#84A600" stop-opacity="0.472"/>
<stop offset="1" stop-color="#586E00"/>
</linearGradient>
<radialGradient id="paint9_radial_6471_448" cx="0" cy="0" r="1" gradientUnits="userSpaceOnUse" gradientTransform="translate(6.04444 8.18053) rotate(-12.0812) scale(6.66052 6.66091)">
<stop stop-color="#FF5C45"/>
<stop offset="0.29" stop-color="#FF5F47"/>
<stop offset="0.498" stop-color="#FF684E"/>
<stop offset="0.681" stop-color="#FF785B"/>
<stop offset="0.847" stop-color="#FF8E6C"/>
<stop offset="0.998" stop-color="#FFA981"/>
</radialGradient>
<linearGradient id="paint10_linear_6471_448" x1="8.88442" y1="3.97242" x2="4.72502" y2="3.97242" gradientUnits="userSpaceOnUse">
<stop stop-color="#FFA981" stop-opacity="0"/>
<stop offset="1" stop-color="#B82934"/>
</linearGradient>
<linearGradient id="paint11_linear_6471_448" x1="7.24221" y1="2.3568" x2="6.5573" y2="6.21261" gradientUnits="userSpaceOnUse">
<stop stop-color="#FFA981" stop-opacity="0"/>
<stop offset="1" stop-color="#B82934"/>
</linearGradient>
<radialGradient id="paint12_radial_6471_448" cx="0" cy="0" r="1" gradientUnits="userSpaceOnUse" gradientTransform="translate(8.46308 7.23986) scale(6.8274 6.8274)">
<stop stop-color="#FF5C45"/>
<stop offset="0.29" stop-color="#FF5F47"/>
<stop offset="0.498" stop-color="#FF684E"/>
<stop offset="0.681" stop-color="#FF785B"/>
<stop offset="0.847" stop-color="#FF8E6C"/>
<stop offset="0.998" stop-color="#FFA981"/>
</radialGradient>
<linearGradient id="paint13_linear_6471_448" x1="2.87291" y1="3.08276" x2="6.66602" y2="7.07419" gradientUnits="userSpaceOnUse">
<stop stop-color="#FFA981" stop-opacity="0"/>
<stop offset="1" stop-color="#B82934"/>
</linearGradient>
<radialGradient id="paint14_radial_6471_448" cx="0" cy="0" r="1" gradientUnits="userSpaceOnUse" gradientTransform="translate(8.71871 3.16125) rotate(8.65574) scale(7.08039 7.39718)">
<stop stop-color="#FF5C45"/>
<stop offset="0.29" stop-color="#FF5F47"/>
<stop offset="0.498" stop-color="#FF684E"/>
<stop offset="0.681" stop-color="#FF785B"/>
<stop offset="0.847" stop-color="#FF8E6C"/>
<stop offset="0.998" stop-color="#FFA981"/>
</radialGradient>
<radialGradient id="paint15_radial_6471_448" cx="0" cy="0" r="1" gradientUnits="userSpaceOnUse" gradientTransform="translate(2.9498 6.03557) rotate(-12.1735) scale(6.34532 7.3281)">
<stop stop-color="#FF5C45"/>
<stop offset="0.29" stop-color="#FF5F47"/>
<stop offset="0.498" stop-color="#FF684E"/>
<stop offset="0.681" stop-color="#FF785B"/>
<stop offset="0.847" stop-color="#FF8E6C"/>
<stop offset="0.998" stop-color="#FFA981"/>
</radialGradient>
<linearGradient id="paint16_linear_6471_448" x1="9.47193" y1="7.08078" x2="6.30204" y2="5.03167" gradientUnits="userSpaceOnUse">
<stop stop-color="#FFA981" stop-opacity="0"/>
<stop offset="1" stop-color="#B82934"/>
</linearGradient>
<linearGradient id="paint17_linear_6471_448" x1="10.1059" y1="6.11595" x2="6.19167" y2="5.97933" gradientUnits="userSpaceOnUse">
<stop stop-color="#FFA981" stop-opacity="0"/>
<stop offset="1" stop-color="#B82934"/>
</linearGradient>
<radialGradient id="paint18_radial_6471_448" cx="0" cy="0" r="1" gradientUnits="userSpaceOnUse" gradientTransform="translate(6.10585 2.41086) rotate(-13.4327) scale(6.41118 6.41116)">
<stop stop-color="#FF5C45"/>
<stop offset="0.29" stop-color="#FF5F47"/>
<stop offset="0.498" stop-color="#FF684E"/>
<stop offset="0.681" stop-color="#FF785B"/>
<stop offset="0.847" stop-color="#FF8E6C"/>
<stop offset="0.998" stop-color="#FFA981"/>
</radialGradient>
<linearGradient id="paint19_linear_6471_448" x1="2.94358" y1="8.24014" x2="6.22512" y2="6.10257" gradientUnits="userSpaceOnUse">
<stop stop-color="#FFA981" stop-opacity="0"/>
<stop offset="1" stop-color="#B82934"/>
</linearGradient>
<linearGradient id="paint20_linear_6471_448" x1="9.70336" y1="8.94964" x2="5.44557" y2="5.4494" gradientUnits="userSpaceOnUse">
<stop stop-color="#FFA981" stop-opacity="0"/>
<stop offset="1" stop-color="#B82934"/>
</linearGradient>
<linearGradient id="paint21_linear_6471_448" x1="10.6779" y1="9.8184" x2="4.75104" y2="3.89179" gradientUnits="userSpaceOnUse">
<stop stop-color="#FFA981" stop-opacity="0"/>
<stop offset="1" stop-color="#B82934"/>
</linearGradient>
<linearGradient id="paint22_linear_6471_448" x1="4.47189" y1="4.02278" x2="5.84552" y2="3.3208" gradientUnits="userSpaceOnUse">
<stop stop-color="#FEFFB3"/>
<stop offset="1" stop-color="#FFCD77"/>
</linearGradient>
<radialGradient id="paint23_radial_6471_448" cx="0" cy="0" r="1" gradientUnits="userSpaceOnUse" gradientTransform="translate(3.5538 0.444986) scale(1.10752 1.10753)">
<stop stop-color="#FEFFB3"/>
<stop offset="0.193" stop-color="#FEF296"/>
<stop offset="0.609" stop-color="#FFD14B"/>
<stop offset="1" stop-color="#FFAF00"/>
</radialGradient>
<radialGradient id="paint24_radial_6471_448" cx="0" cy="0" r="1" gradientUnits="userSpaceOnUse" gradientTransform="translate(3.87113 1.54714) scale(0.549939)">
<stop stop-color="#FEFFB3"/>
<stop offset="0.193" stop-color="#FEF296"/>
<stop offset="0.609" stop-color="#FFD14B"/>
<stop offset="1" stop-color="#FFAF00"/>
</radialGradient>
<radialGradient id="paint25_radial_6471_448" cx="0" cy="0" r="1" gradientUnits="userSpaceOnUse" gradientTransform="translate(4.60065 1.44144) scale(0.549939 0.549941)">
<stop stop-color="#FEFFB3"/>
<stop offset="0.193" stop-color="#FEF296"/>
<stop offset="0.609" stop-color="#FFD14B"/>
<stop offset="1" stop-color="#FFAF00"/>
</radialGradient>
<radialGradient id="paint26_radial_6471_448" cx="0" cy="0" r="1" gradientUnits="userSpaceOnUse" gradientTransform="translate(4.29398 2.24514) scale(0.549939)">
<stop stop-color="#FEFFB3"/>
<stop offset="0.193" stop-color="#FEF296"/>
<stop offset="0.609" stop-color="#FFD14B"/>
<stop offset="1" stop-color="#FFAF00"/>
</radialGradient>
<radialGradient id="paint27_radial_6471_448" cx="0" cy="0" r="1" gradientUnits="userSpaceOnUse" gradientTransform="translate(5.00258 2.37208) scale(0.549939)">
<stop stop-color="#FEFFB3"/>
<stop offset="0.193" stop-color="#FEF296"/>
<stop offset="0.609" stop-color="#FFD14B"/>
<stop offset="1" stop-color="#FFAF00"/>
</radialGradient>
<clipPath id="clip0_6471_448">
<rect width="13" height="13" fill="white"/>
</clipPath>
</defs>
</svg>
