<svg width="39" height="39" viewBox="0 0 39 39" fill="none" xmlns="http://www.w3.org/2000/svg">
<g clip-path="url(#clip0_6471_402)">
<path d="M5.63378 19.5517C5.63378 19.5517 4.8938 14.5642 12.3209 5.61617C12.3208 5.61611 8.7427 14.6169 5.63378 19.5517Z" fill="url(#paint0_linear_6471_402)"/>
<path d="M5.63382 19.5517C8.74271 14.6169 12.3209 5.61615 12.3209 5.61615C12.3209 5.61615 6.38348 15.4484 5.63382 19.5517Z" fill="url(#paint1_linear_6471_402)"/>
<path d="M19.5836 15.5578C19.5836 15.5578 22.1551 18.9988 32.0512 19.0706C32.0512 19.0706 24.4457 16.2854 19.5836 15.5578Z" fill="url(#paint2_linear_6471_402)"/>
<path d="M19.5836 15.5578C24.4457 16.2854 32.0512 19.0706 32.0512 19.0706C32.0512 19.0706 22.519 17.442 19.5836 15.5578Z" fill="url(#paint3_linear_6471_402)"/>
<path d="M5.8398 20.2941C5.8398 20.2941 6.83569 23.9872 14.5998 27.2306C14.5998 27.2307 9.44773 22.4643 5.8398 20.2941Z" fill="url(#paint4_linear_6471_402)"/>
<path d="M5.8398 20.2942C9.44776 22.4642 14.5998 27.2307 14.5998 27.2307C14.5998 27.2307 7.58667 22.8077 5.8398 20.2942Z" fill="url(#paint5_linear_6471_402)"/>
<path d="M22.3131 15.3935C22.3131 15.3935 26.3523 13.6373 36.6408 17.5929C36.6408 17.5929 27.6442 16.7738 22.3131 15.3935Z" fill="url(#paint6_linear_6471_402)"/>
<path d="M22.3131 15.3935C27.6442 16.7738 36.6408 17.5929 36.6408 17.5929C36.6408 17.5929 26.1083 15.0513 22.3131 15.3935Z" fill="url(#paint7_linear_6471_402)"/>
<path d="M8.20061 18.0415C8.20061 18.0415 10.0759 7.28935 18.5013 4.54481C18.5013 4.54479 12.8775 7.89377 8.20061 18.0415Z" fill="url(#paint8_linear_6471_402)"/>
<path d="M18.5013 4.5448C18.4943 4.54708 18.4875 4.5497 18.4805 4.55196C18.0811 4.69277 11.9171 7.02563 8.20055 18.0415C12.8775 7.89377 18.5013 4.5448 18.5013 4.5448Z" fill="url(#paint9_linear_6471_402)"/>
<path d="M10.4689 17.0129C10.4689 17.0129 15.406 8.73744 21.9588 5.51036C21.9588 5.51041 13.1011 6.61049 10.4689 17.0129Z" fill="url(#paint10_linear_6471_402)"/>
<path d="M21.9588 5.51041C21.9588 5.51041 14.7929 7.10723 10.4689 17.0129C10.4689 17.0129 15.4061 8.73743 21.9588 5.51041Z" fill="url(#paint11_linear_6471_402)"/>
<path d="M12.8211 16.2015C12.8211 16.2015 16.0422 6.91148 25.1073 7.56002C25.1074 7.56008 18.3823 8.68389 12.8211 16.2015Z" fill="url(#paint12_linear_6471_402)"/>
<path d="M25.1074 7.56008C17.429 7.7934 12.821 16.2015 12.821 16.2015C18.3823 8.68389 25.1074 7.56008 25.1074 7.56008Z" fill="url(#paint13_linear_6471_402)"/>
<path d="M15.1761 15.5709C15.1761 15.5709 20.4966 10.2699 27.633 9.16445C27.633 9.16438 19.5767 7.87558 15.1761 15.5709Z" fill="url(#paint14_linear_6471_402)"/>
<path d="M27.633 9.16435C19.7516 9.25187 15.1762 15.5708 15.1762 15.5708C15.1762 15.5708 20.4966 10.2699 27.633 9.16435Z" fill="url(#paint15_linear_6471_402)"/>
<path d="M17.6081 15.2444C17.6081 15.2444 24.2359 8.13258 30.9138 11.8588C30.9138 11.8588 23.8822 10.2232 17.6081 15.2444Z" fill="url(#paint16_linear_6471_402)"/>
<path d="M30.9138 11.8588C23.2701 9.31455 17.6081 15.2444 17.6081 15.2444C23.8822 10.2232 30.9138 11.8588 30.9138 11.8588Z" fill="url(#paint17_linear_6471_402)"/>
<path d="M20.0459 15.1334C20.0459 15.1334 24.6552 10.3369 31.7695 14.3969C31.7695 14.3969 24.5899 12.8277 20.0459 15.1334Z" fill="url(#paint18_linear_6471_402)"/>
<path d="M31.7695 14.3969C25.0007 11.7003 20.0459 15.1335 20.0459 15.1335C24.5899 12.8278 31.7695 14.3969 31.7695 14.3969Z" fill="url(#paint19_linear_6471_402)"/>
<path d="M8.27902 18.8393C8.27902 18.8393 13.3607 24.7645 19.5454 25.5874C19.5454 25.5874 11.4207 27.4362 8.27902 18.8393Z" fill="url(#paint20_linear_6471_402)"/>
<path d="M19.5455 25.5874C19.5455 25.5874 12.9215 26.4414 8.27908 18.8393C8.27904 18.8393 13.3607 24.7645 19.5455 25.5874Z" fill="url(#paint21_linear_6471_402)"/>
<path d="M10.3858 17.7313C10.3858 17.7313 13.8379 26.5279 22.8186 24.6278C22.8185 24.6278 16.1122 24.4406 10.3858 17.7313Z" fill="url(#paint22_linear_6471_402)"/>
<path d="M22.8185 24.6278C15.1903 25.4585 10.3858 17.7313 10.3858 17.7313C16.1122 24.4406 22.8185 24.6278 22.8185 24.6278Z" fill="url(#paint23_linear_6471_402)"/>
<path d="M15.1232 16.1606C15.1232 16.1606 20.2059 21.1846 27.3 21.9114C27.3 21.9114 19.1744 23.6309 15.1232 16.1606Z" fill="url(#paint24_linear_6471_402)"/>
<path d="M27.3 21.9114C19.413 22.2435 15.1232 16.1606 15.1232 16.1606C15.1232 16.1606 20.2058 21.1846 27.3 21.9114Z" fill="url(#paint25_linear_6471_402)"/>
<path d="M16.9511 15.7498C16.9511 15.7498 23.2633 23.2378 30.5375 19.7251C30.5375 19.7252 23.0701 21.1011 16.9511 15.7498Z" fill="url(#paint26_linear_6471_402)"/>
<path d="M30.5375 19.7252C22.3558 21.9988 16.9511 15.7499 16.9511 15.7499C23.0701 21.1011 30.5375 19.7252 30.5375 19.7252Z" fill="url(#paint27_linear_6471_402)"/>
<path d="M12.746 16.8155C12.746 16.8155 14.528 23.4329 24.8129 23.8498C24.8129 23.8498 16.0952 21.2684 12.746 16.8155Z" fill="url(#paint28_linear_6471_402)"/>
<path d="M24.813 23.8498C15.794 22.4564 12.746 16.8155 12.746 16.8155C16.0952 21.2684 24.813 23.8498 24.813 23.8498Z" fill="url(#paint29_linear_6471_402)"/>
<path d="M22.3131 15.3935C22.3131 15.3935 12.4406 12.9942 0.448224 23.1736C0.448224 23.1736 2.36433 22.6307 5.26603 20.6221C10.2129 17.1977 16.2119 15.2196 22.3131 15.3935Z" fill="url(#paint30_linear_6471_402)"/>
<path d="M22.3131 15.3935C11.0849 14.2826 0.636012 23.0158 0.450969 23.1713C0.450044 23.172 0.449148 23.1728 0.448252 23.1735C0.448252 23.1735 2.36436 22.6307 5.26605 20.622C10.2129 17.1977 16.2119 15.2196 22.3131 15.3935Z" fill="url(#paint31_linear_6471_402)"/>
<path d="M14.7691 28.4974C14.7691 28.4974 22.5712 30.2322 26.2385 26.379C26.2385 26.379 21.496 29.2596 14.7691 28.4974Z" fill="url(#paint32_linear_6471_402)"/>
<path d="M26.2385 26.379C21.3782 29.9044 14.7691 28.4974 14.7691 28.4974C21.496 29.2596 26.2385 26.379 26.2385 26.379Z" fill="url(#paint33_linear_6471_402)"/>
<path d="M16.2063 28.6545C16.2063 28.6545 24.8175 30.2853 28.7033 25.9353C28.7033 25.9353 23.6054 29.2568 16.2063 28.6545Z" fill="url(#paint34_linear_6471_402)"/>
<path d="M28.7032 25.9353C23.4986 29.9676 16.2063 28.6545 16.2063 28.6545C23.6054 29.2568 28.7032 25.9353 28.7032 25.9353Z" fill="url(#paint35_linear_6471_402)"/>
<path d="M30.7193 25.6688C30.1796 25.9596 29.6366 26.2434 29.0792 26.4965C28.94 26.5601 28.8021 26.6262 28.6623 26.6883L28.2406 26.8689L28.0298 26.959L27.8165 27.043L27.3901 27.2109C26.8163 27.4208 26.2402 27.6238 25.6531 27.7898C25.3618 27.8802 25.0649 27.951 24.7709 28.0308L24.326 28.1354L24.1036 28.1873L23.8798 28.233C22.6885 28.4866 21.4784 28.6407 20.2653 28.705C19.6587 28.7389 19.0511 28.7453 18.4443 28.7347C17.8374 28.7237 17.2314 28.6839 16.6273 28.6284C15.4194 28.5122 14.2221 28.3009 13.0447 28.0152C11.8674 27.7287 10.7041 27.3899 9.55455 27.0033C8.40535 26.6158 7.27135 26.1762 6.15789 25.682C5.60179 25.4338 5.04867 25.1761 4.50282 24.9016C3.95567 24.6299 3.41424 24.3426 2.88313 24.0367L2.83917 24.0969C3.31113 24.499 3.81771 24.8536 4.3326 25.1968C4.59154 25.366 4.85426 25.5294 5.11877 25.6904C5.38392 25.8502 5.65354 26.0023 5.92469 26.1521C7.01082 26.7482 8.14094 27.2688 9.30403 27.7061C10.4671 28.1435 11.6661 28.4895 12.8851 28.7365C13.4951 28.8579 14.1091 28.9577 14.7251 29.0395C15.3408 29.1226 15.9592 29.1859 16.5791 29.2234C17.1988 29.2633 17.8194 29.2869 18.4402 29.2813C19.0608 29.2753 19.6811 29.2515 20.2992 29.2001C21.5349 29.093 22.7618 28.8947 23.963 28.5966L24.1883 28.5415L24.412 28.48L24.859 28.3564C25.1541 28.2639 25.4518 28.1805 25.7432 28.0775C26.3308 27.8864 26.9052 27.6586 27.4754 27.4244L27.8989 27.2384L28.1105 27.1454L28.3194 27.0463L28.7368 26.848C28.875 26.78 29.0114 26.7084 29.1485 26.6385C29.6971 26.3588 30.2294 26.049 30.7566 25.7333L30.7193 25.6688Z" fill="url(#paint36_linear_6471_402)"/>
<path d="M2.88322 24.0367C3.41428 24.3426 3.95574 24.6299 4.50292 24.9016C5.04872 25.1761 5.60183 25.4338 6.15798 25.682C7.27137 26.1763 8.40549 26.6159 9.55464 27.0033C10.7042 27.39 11.8675 27.7287 13.0448 28.0152C14.2222 28.301 15.4195 28.5123 16.6274 28.6284C17.2315 28.684 17.8374 28.7237 18.4444 28.7348C19.0512 28.7453 19.6588 28.7389 20.2654 28.7051C21.4785 28.6408 22.6886 28.4867 23.8799 28.2331L24.1037 28.1874L24.3261 28.1355L24.771 28.0309C25.065 27.9511 25.3618 27.8803 25.6532 27.7898C26.2404 27.6239 26.8164 27.4208 27.3902 27.2109L27.8166 27.043L28.0299 26.959L28.2407 26.8689L28.6624 26.6883C28.8022 26.6263 28.9401 26.5602 29.0792 26.4966C29.6367 26.2435 30.1797 25.9596 30.7194 25.6688C30.7193 25.6688 18.3107 34.2832 2.88322 24.0367Z" fill="url(#paint37_linear_6471_402)"/>
<path d="M12.4485 28.6712C12.4485 28.6712 19.34 31.5157 25.765 30.3719C25.7651 30.3719 19.7028 33.7582 12.4485 28.6712Z" fill="url(#paint38_linear_6471_402)"/>
<path d="M25.765 30.3719C19.2014 32.5712 12.4485 28.6712 12.4485 28.6712C12.4485 28.6712 19.3401 31.5157 25.765 30.3719Z" fill="url(#paint39_linear_6471_402)"/>
<path d="M15.1654 29.0858C15.1654 29.0858 22.472 30.569 28.5625 28.2252C28.5626 28.2253 23.2541 32.7018 15.1654 29.0858Z" fill="url(#paint40_linear_6471_402)"/>
<path d="M28.5626 28.2253C22.5364 31.6316 15.1655 29.0859 15.1655 29.0859C15.1655 29.0859 22.472 30.569 28.5626 28.2253Z" fill="url(#paint41_linear_6471_402)"/>
<path d="M18.5422 29.2586C18.5422 29.2586 25.6963 28.8959 30.6226 26.2859C30.6226 26.2859 27.0341 30.1293 18.5422 29.2586Z" fill="url(#paint42_linear_6471_402)"/>
<path d="M30.6226 26.2859C26.0635 29.5692 18.5422 29.2586 18.5422 29.2586C18.5422 29.2586 25.6964 28.8959 30.6226 26.2859Z" fill="url(#paint43_linear_6471_402)"/>
</g>
<defs>
<linearGradient id="paint0_linear_6471_402" x1="10.6218" y1="7.10699" x2="5.74049" y2="20.0943" gradientUnits="userSpaceOnUse">
<stop offset="0.003" stop-color="#FFE000"/>
<stop offset="0.142" stop-color="#DCDE00"/>
<stop offset="0.274" stop-color="#C3DD00"/>
<stop offset="0.393" stop-color="#B4DC00"/>
<stop offset="0.491" stop-color="#AFDC00"/>
<stop offset="0.715" stop-color="#AEDA00"/>
<stop offset="0.796" stop-color="#A8D300"/>
<stop offset="0.854" stop-color="#9FC800"/>
<stop offset="0.901" stop-color="#91B700"/>
<stop offset="0.941" stop-color="#80A100"/>
<stop offset="0.975" stop-color="#6B8600"/>
<stop offset="1" stop-color="#586E00"/>
</linearGradient>
<linearGradient id="paint1_linear_6471_402" x1="10.5509" y1="13.1757" x2="6.77834" y2="11.7577" gradientUnits="userSpaceOnUse">
<stop stop-color="#AFDC00" stop-opacity="0"/>
<stop offset="0.472" stop-color="#84A600" stop-opacity="0.472"/>
<stop offset="1" stop-color="#586E00"/>
</linearGradient>
<linearGradient id="paint2_linear_6471_402" x1="30.1252" y1="19.3759" x2="19.4006" y2="14.9683" gradientUnits="userSpaceOnUse">
<stop offset="0.003" stop-color="#FFE000"/>
<stop offset="0.142" stop-color="#DCDE00"/>
<stop offset="0.274" stop-color="#C3DD00"/>
<stop offset="0.393" stop-color="#B4DC00"/>
<stop offset="0.491" stop-color="#AFDC00"/>
<stop offset="0.715" stop-color="#AEDA00"/>
<stop offset="0.796" stop-color="#A8D300"/>
<stop offset="0.854" stop-color="#9FC800"/>
<stop offset="0.901" stop-color="#91B700"/>
<stop offset="0.941" stop-color="#80A100"/>
<stop offset="0.975" stop-color="#6B8600"/>
<stop offset="1" stop-color="#586E00"/>
</linearGradient>
<linearGradient id="paint3_linear_6471_402" x1="26.4042" y1="15.8846" x2="25.0613" y2="19.339" gradientUnits="userSpaceOnUse">
<stop stop-color="#AFDC00" stop-opacity="0"/>
<stop offset="0.472" stop-color="#84A600" stop-opacity="0.472"/>
<stop offset="1" stop-color="#586E00"/>
</linearGradient>
<linearGradient id="paint4_linear_6471_402" x1="13.0166" y1="26.8193" x2="5.63499" y2="20.0137" gradientUnits="userSpaceOnUse">
<stop offset="0.003" stop-color="#FFE000"/>
<stop offset="0.142" stop-color="#DCDE00"/>
<stop offset="0.274" stop-color="#C3DD00"/>
<stop offset="0.393" stop-color="#B4DC00"/>
<stop offset="0.491" stop-color="#AFDC00"/>
<stop offset="0.715" stop-color="#AEDA00"/>
<stop offset="0.796" stop-color="#A8D300"/>
<stop offset="0.854" stop-color="#9FC800"/>
<stop offset="0.901" stop-color="#91B700"/>
<stop offset="0.941" stop-color="#80A100"/>
<stop offset="0.975" stop-color="#6B8600"/>
<stop offset="1" stop-color="#586E00"/>
</linearGradient>
<linearGradient id="paint5_linear_6471_402" x1="10.9603" y1="22.9588" x2="9.13365" y2="24.938" gradientUnits="userSpaceOnUse">
<stop stop-color="#AFDC00" stop-opacity="0"/>
<stop offset="0.472" stop-color="#84A600" stop-opacity="0.472"/>
<stop offset="1" stop-color="#586E00"/>
</linearGradient>
<linearGradient id="paint6_linear_6471_402" x1="34.8111" y1="16.4049" x2="21.8551" y2="16.0409" gradientUnits="userSpaceOnUse">
<stop offset="0.003" stop-color="#FFE000"/>
<stop offset="0.142" stop-color="#DCDE00"/>
<stop offset="0.274" stop-color="#C3DD00"/>
<stop offset="0.393" stop-color="#B4DC00"/>
<stop offset="0.491" stop-color="#AFDC00"/>
<stop offset="0.715" stop-color="#AEDA00"/>
<stop offset="0.796" stop-color="#A8D300"/>
<stop offset="0.854" stop-color="#9FC800"/>
<stop offset="0.901" stop-color="#91B700"/>
<stop offset="0.941" stop-color="#80A100"/>
<stop offset="0.975" stop-color="#6B8600"/>
<stop offset="1" stop-color="#586E00"/>
</linearGradient>
<linearGradient id="paint7_linear_6471_402" x1="29.4167" y1="18.618" x2="29.5551" y2="13.6864" gradientUnits="userSpaceOnUse">
<stop stop-color="#AFDC00" stop-opacity="0"/>
<stop offset="0.472" stop-color="#84A600" stop-opacity="0.472"/>
<stop offset="1" stop-color="#586E00"/>
</linearGradient>
<linearGradient id="paint8_linear_6471_402" x1="15.1858" y1="6.64701" x2="8.09952" y2="21.6605" gradientUnits="userSpaceOnUse">
<stop offset="0.003" stop-color="#FFE000"/>
<stop offset="0.142" stop-color="#DCDE00"/>
<stop offset="0.274" stop-color="#C3DD00"/>
<stop offset="0.393" stop-color="#B4DC00"/>
<stop offset="0.491" stop-color="#AFDC00"/>
<stop offset="0.556" stop-color="#A1CA00"/>
<stop offset="0.759" stop-color="#7A9900"/>
<stop offset="0.914" stop-color="#617A00"/>
<stop offset="1" stop-color="#586E00"/>
</linearGradient>
<linearGradient id="paint9_linear_6471_402" x1="13.1915" y1="11.1661" x2="10.8663" y2="9.30588" gradientUnits="userSpaceOnUse">
<stop stop-color="#AFDC00" stop-opacity="0"/>
<stop offset="0.472" stop-color="#84A600" stop-opacity="0.472"/>
<stop offset="1" stop-color="#586E00"/>
</linearGradient>
<linearGradient id="paint10_linear_6471_402" x1="18.9769" y1="6.17951" x2="10.1931" y2="19.3259" gradientUnits="userSpaceOnUse">
<stop offset="0.003" stop-color="#FFE000"/>
<stop offset="0.142" stop-color="#DCDE00"/>
<stop offset="0.274" stop-color="#C3DD00"/>
<stop offset="0.393" stop-color="#B4DC00"/>
<stop offset="0.491" stop-color="#AFDC00"/>
<stop offset="0.556" stop-color="#A1CA00"/>
<stop offset="0.759" stop-color="#7A9900"/>
<stop offset="0.914" stop-color="#617A00"/>
<stop offset="1" stop-color="#586E00"/>
</linearGradient>
<linearGradient id="paint11_linear_6471_402" x1="16.9664" y1="11.8504" x2="13.1608" y2="8.87568" gradientUnits="userSpaceOnUse">
<stop stop-color="#AFDC00" stop-opacity="0"/>
<stop offset="0.472" stop-color="#84A600" stop-opacity="0.472"/>
<stop offset="1" stop-color="#586E00"/>
</linearGradient>
<linearGradient id="paint12_linear_6471_402" x1="22.74" y1="6.85998" x2="13.2985" y2="17.615" gradientUnits="userSpaceOnUse">
<stop offset="0.003" stop-color="#FFE000"/>
<stop offset="0.142" stop-color="#DCDE00"/>
<stop offset="0.274" stop-color="#C3DD00"/>
<stop offset="0.393" stop-color="#B4DC00"/>
<stop offset="0.491" stop-color="#AFDC00"/>
<stop offset="0.556" stop-color="#A1CA00"/>
<stop offset="0.759" stop-color="#7A9900"/>
<stop offset="0.914" stop-color="#617A00"/>
<stop offset="1" stop-color="#586E00"/>
</linearGradient>
<linearGradient id="paint13_linear_6471_402" x1="20.6439" y1="13.1945" x2="14.4864" y2="8.38114" gradientUnits="userSpaceOnUse">
<stop stop-color="#AFDC00" stop-opacity="0"/>
<stop offset="0.472" stop-color="#84A600" stop-opacity="0.472"/>
<stop offset="1" stop-color="#586E00"/>
</linearGradient>
<linearGradient id="paint14_linear_6471_402" x1="26.7138" y1="5.95632" x2="15.4103" y2="19.1902" gradientUnits="userSpaceOnUse">
<stop offset="0.003" stop-color="#FFE000"/>
<stop offset="0.142" stop-color="#DCDE00"/>
<stop offset="0.274" stop-color="#C3DD00"/>
<stop offset="0.393" stop-color="#B4DC00"/>
<stop offset="0.491" stop-color="#AFDC00"/>
<stop offset="0.556" stop-color="#A1CA00"/>
<stop offset="0.759" stop-color="#7A9900"/>
<stop offset="0.914" stop-color="#617A00"/>
<stop offset="1" stop-color="#586E00"/>
</linearGradient>
<linearGradient id="paint15_linear_6471_402" x1="23.6686" y1="14.1382" x2="15.7081" y2="7.91479" gradientUnits="userSpaceOnUse">
<stop stop-color="#AFDC00" stop-opacity="0"/>
<stop offset="0.472" stop-color="#84A600" stop-opacity="0.472"/>
<stop offset="1" stop-color="#586E00"/>
</linearGradient>
<linearGradient id="paint16_linear_6471_402" x1="29.3115" y1="8.80422" x2="17.8921" y2="19.5141" gradientUnits="userSpaceOnUse">
<stop offset="0.003" stop-color="#FFE000"/>
<stop offset="0.142" stop-color="#DCDE00"/>
<stop offset="0.274" stop-color="#C3DD00"/>
<stop offset="0.393" stop-color="#B4DC00"/>
<stop offset="0.491" stop-color="#AFDC00"/>
<stop offset="0.556" stop-color="#A1CA00"/>
<stop offset="0.759" stop-color="#7A9900"/>
<stop offset="0.914" stop-color="#617A00"/>
<stop offset="1" stop-color="#586E00"/>
</linearGradient>
<linearGradient id="paint17_linear_6471_402" x1="27.5013" y1="16.0854" x2="16.1132" y2="7.18263" gradientUnits="userSpaceOnUse">
<stop stop-color="#AFDC00" stop-opacity="0"/>
<stop offset="0.472" stop-color="#84A600" stop-opacity="0.472"/>
<stop offset="1" stop-color="#586E00"/>
</linearGradient>
<linearGradient id="paint18_linear_6471_402" x1="28.7177" y1="13.0773" x2="18.3916" y2="18.7256" gradientUnits="userSpaceOnUse">
<stop offset="0.003" stop-color="#FFE000"/>
<stop offset="0.142" stop-color="#DCDE00"/>
<stop offset="0.274" stop-color="#C3DD00"/>
<stop offset="0.393" stop-color="#B4DC00"/>
<stop offset="0.491" stop-color="#AFDC00"/>
<stop offset="0.556" stop-color="#A1CA00"/>
<stop offset="0.759" stop-color="#7A9900"/>
<stop offset="0.914" stop-color="#617A00"/>
<stop offset="1" stop-color="#586E00"/>
</linearGradient>
<linearGradient id="paint19_linear_6471_402" x1="29.2967" y1="17.4151" x2="17.386" y2="8.10384" gradientUnits="userSpaceOnUse">
<stop stop-color="#AFDC00" stop-opacity="0"/>
<stop offset="0.472" stop-color="#84A600" stop-opacity="0.472"/>
<stop offset="1" stop-color="#586E00"/>
</linearGradient>
<linearGradient id="paint20_linear_6471_402" x1="16.7989" y1="25.8701" x2="7.70397" y2="17.0418" gradientUnits="userSpaceOnUse">
<stop offset="0.003" stop-color="#FFE000"/>
<stop offset="0.142" stop-color="#DCDE00"/>
<stop offset="0.274" stop-color="#C3DD00"/>
<stop offset="0.393" stop-color="#B4DC00"/>
<stop offset="0.491" stop-color="#AFDC00"/>
<stop offset="0.556" stop-color="#A1CA00"/>
<stop offset="0.759" stop-color="#7A9900"/>
<stop offset="0.914" stop-color="#617A00"/>
<stop offset="1" stop-color="#586E00"/>
</linearGradient>
<linearGradient id="paint21_linear_6471_402" x1="14.5481" y1="21.4519" x2="11.3045" y2="25.3347" gradientUnits="userSpaceOnUse">
<stop stop-color="#AFDC00" stop-opacity="0"/>
<stop offset="0.472" stop-color="#84A600" stop-opacity="0.472"/>
<stop offset="1" stop-color="#586E00"/>
</linearGradient>
<linearGradient id="paint22_linear_6471_402" x1="20.4892" y1="25.6383" x2="10.8029" y2="16.2875" gradientUnits="userSpaceOnUse">
<stop offset="0.003" stop-color="#FFE000"/>
<stop offset="0.142" stop-color="#DCDE00"/>
<stop offset="0.274" stop-color="#C3DD00"/>
<stop offset="0.393" stop-color="#B4DC00"/>
<stop offset="0.491" stop-color="#AFDC00"/>
<stop offset="0.556" stop-color="#A1CA00"/>
<stop offset="0.759" stop-color="#7A9900"/>
<stop offset="0.914" stop-color="#617A00"/>
<stop offset="1" stop-color="#586E00"/>
</linearGradient>
<linearGradient id="paint23_linear_6471_402" x1="18.2006" y1="19.702" x2="12.2991" y2="25.1564" gradientUnits="userSpaceOnUse">
<stop stop-color="#AFDC00" stop-opacity="0"/>
<stop offset="0.472" stop-color="#84A600" stop-opacity="0.472"/>
<stop offset="1" stop-color="#586E00"/>
</linearGradient>
<linearGradient id="paint24_linear_6471_402" x1="26.2491" y1="25.1188" x2="15.4895" y2="12.5942" gradientUnits="userSpaceOnUse">
<stop offset="0.003" stop-color="#FFE000"/>
<stop offset="0.142" stop-color="#DCDE00"/>
<stop offset="0.274" stop-color="#C3DD00"/>
<stop offset="0.393" stop-color="#B4DC00"/>
<stop offset="0.491" stop-color="#AFDC00"/>
<stop offset="0.556" stop-color="#A1CA00"/>
<stop offset="0.759" stop-color="#7A9900"/>
<stop offset="0.914" stop-color="#617A00"/>
<stop offset="1" stop-color="#586E00"/>
</linearGradient>
<linearGradient id="paint25_linear_6471_402" x1="23.5279" y1="17.214" x2="15.3809" y2="23.6215" gradientUnits="userSpaceOnUse">
<stop stop-color="#AFDC00" stop-opacity="0"/>
<stop offset="0.472" stop-color="#84A600" stop-opacity="0.472"/>
<stop offset="1" stop-color="#586E00"/>
</linearGradient>
<linearGradient id="paint26_linear_6471_402" x1="28.581" y1="22.8626" x2="17.6494" y2="11.2952" gradientUnits="userSpaceOnUse">
<stop offset="0.003" stop-color="#FFE000"/>
<stop offset="0.142" stop-color="#DCDE00"/>
<stop offset="0.274" stop-color="#C3DD00"/>
<stop offset="0.393" stop-color="#B4DC00"/>
<stop offset="0.491" stop-color="#AFDC00"/>
<stop offset="0.556" stop-color="#A1CA00"/>
<stop offset="0.759" stop-color="#7A9900"/>
<stop offset="0.914" stop-color="#617A00"/>
<stop offset="1" stop-color="#586E00"/>
</linearGradient>
<linearGradient id="paint27_linear_6471_402" x1="27.3477" y1="15.255" x2="14.6839" y2="23.9791" gradientUnits="userSpaceOnUse">
<stop stop-color="#AFDC00" stop-opacity="0"/>
<stop offset="0.472" stop-color="#84A600" stop-opacity="0.472"/>
<stop offset="1" stop-color="#586E00"/>
</linearGradient>
<linearGradient id="paint28_linear_6471_402" x1="20.5432" y1="23.5983" x2="13.9979" y2="11.9822" gradientUnits="userSpaceOnUse">
<stop offset="0.003" stop-color="#FFE000"/>
<stop offset="0.142" stop-color="#DCDE00"/>
<stop offset="0.274" stop-color="#C3DD00"/>
<stop offset="0.393" stop-color="#B4DC00"/>
<stop offset="0.491" stop-color="#AFDC00"/>
<stop offset="0.556" stop-color="#A1CA00"/>
<stop offset="0.759" stop-color="#7A9900"/>
<stop offset="0.914" stop-color="#617A00"/>
<stop offset="1" stop-color="#586E00"/>
</linearGradient>
<linearGradient id="paint29_linear_6471_402" x1="24.26" y1="19.7473" x2="5.00064" y2="21.8043" gradientUnits="userSpaceOnUse">
<stop stop-color="#AFDC00" stop-opacity="0"/>
<stop offset="0.472" stop-color="#84A600" stop-opacity="0.472"/>
<stop offset="1" stop-color="#586E00"/>
</linearGradient>
<linearGradient id="paint30_linear_6471_402" x1="28.3309" y1="17.9522" x2="0.978363" y2="19.7229" gradientUnits="userSpaceOnUse">
<stop offset="0.003" stop-color="#FFE000"/>
<stop offset="0.142" stop-color="#DCDE00"/>
<stop offset="0.274" stop-color="#C3DD00"/>
<stop offset="0.393" stop-color="#B4DC00"/>
<stop offset="0.491" stop-color="#AFDC00"/>
<stop offset="0.715" stop-color="#AEDA00"/>
<stop offset="0.796" stop-color="#A8D300"/>
<stop offset="0.854" stop-color="#9FC800"/>
<stop offset="0.901" stop-color="#91B700"/>
<stop offset="0.941" stop-color="#80A100"/>
<stop offset="0.975" stop-color="#6B8600"/>
<stop offset="1" stop-color="#586E00"/>
</linearGradient>
<linearGradient id="paint31_linear_6471_402" x1="16.1017" y1="25.1352" x2="4.9032" y2="11.2558" gradientUnits="userSpaceOnUse">
<stop stop-color="#AFDC00" stop-opacity="0"/>
<stop offset="0.472" stop-color="#84A600" stop-opacity="0.472"/>
<stop offset="1" stop-color="#586E00"/>
</linearGradient>
<linearGradient id="paint32_linear_6471_402" x1="26.363" y1="29.0163" x2="13.1291" y2="25.4521" gradientUnits="userSpaceOnUse">
<stop offset="0.003" stop-color="#FFE000"/>
<stop offset="0.142" stop-color="#DCDE00"/>
<stop offset="0.274" stop-color="#C3DD00"/>
<stop offset="0.393" stop-color="#B4DC00"/>
<stop offset="0.491" stop-color="#AFDC00"/>
<stop offset="0.556" stop-color="#A1CA00"/>
<stop offset="0.759" stop-color="#7A9900"/>
<stop offset="0.914" stop-color="#617A00"/>
<stop offset="1" stop-color="#586E00"/>
</linearGradient>
<linearGradient id="paint33_linear_6471_402" x1="21.8093" y1="24.4902" x2="17.2201" y2="34.8497" gradientUnits="userSpaceOnUse">
<stop stop-color="#AFDC00" stop-opacity="0"/>
<stop offset="0.472" stop-color="#84A600" stop-opacity="0.472"/>
<stop offset="1" stop-color="#586E00"/>
</linearGradient>
<linearGradient id="paint34_linear_6471_402" x1="28.9314" y1="28.8214" x2="14.3033" y2="25.3737" gradientUnits="userSpaceOnUse">
<stop offset="0.003" stop-color="#FFE000"/>
<stop offset="0.142" stop-color="#DCDE00"/>
<stop offset="0.274" stop-color="#C3DD00"/>
<stop offset="0.393" stop-color="#B4DC00"/>
<stop offset="0.491" stop-color="#AFDC00"/>
<stop offset="0.556" stop-color="#A1CA00"/>
<stop offset="0.759" stop-color="#7A9900"/>
<stop offset="0.914" stop-color="#617A00"/>
<stop offset="1" stop-color="#586E00"/>
</linearGradient>
<linearGradient id="paint35_linear_6471_402" x1="23.7832" y1="24.0185" x2="19.1135" y2="35.5312" gradientUnits="userSpaceOnUse">
<stop stop-color="#AFDC00" stop-opacity="0"/>
<stop offset="0.472" stop-color="#84A600" stop-opacity="0.472"/>
<stop offset="1" stop-color="#586E00"/>
</linearGradient>
<linearGradient id="paint36_linear_6471_402" x1="11.3694" y1="31.5285" x2="22.1008" y2="18.4473" gradientUnits="userSpaceOnUse">
<stop stop-color="#586E00"/>
<stop offset="0.025" stop-color="#6B8600"/>
<stop offset="0.059" stop-color="#80A100"/>
<stop offset="0.099" stop-color="#91B700"/>
<stop offset="0.146" stop-color="#9FC800"/>
<stop offset="0.204" stop-color="#A8D300"/>
<stop offset="0.285" stop-color="#AEDA00"/>
<stop offset="0.509" stop-color="#AFDC00"/>
<stop offset="0.607" stop-color="#B4DC00"/>
<stop offset="0.727" stop-color="#C3DD00"/>
<stop offset="0.858" stop-color="#DCDE00"/>
<stop offset="0.998" stop-color="#FFE000"/>
</linearGradient>
<linearGradient id="paint37_linear_6471_402" x1="16.587" y1="22.6842" x2="17.5359" y2="32.2993" gradientUnits="userSpaceOnUse">
<stop stop-color="#AFDC00" stop-opacity="0"/>
<stop offset="0.472" stop-color="#84A600" stop-opacity="0.472"/>
<stop offset="1" stop-color="#586E00"/>
</linearGradient>
<linearGradient id="paint38_linear_6471_402" x1="26.5036" y1="33.1032" x2="10.9158" y2="25.8744" gradientUnits="userSpaceOnUse">
<stop offset="0.003" stop-color="#FFE000"/>
<stop offset="0.142" stop-color="#DCDE00"/>
<stop offset="0.274" stop-color="#C3DD00"/>
<stop offset="0.393" stop-color="#B4DC00"/>
<stop offset="0.491" stop-color="#AFDC00"/>
<stop offset="0.556" stop-color="#A1CA00"/>
<stop offset="0.759" stop-color="#7A9900"/>
<stop offset="0.914" stop-color="#617A00"/>
<stop offset="1" stop-color="#586E00"/>
</linearGradient>
<linearGradient id="paint39_linear_6471_402" x1="20.1443" y1="27.5156" x2="16.4924" y2="34.5726" gradientUnits="userSpaceOnUse">
<stop stop-color="#AFDC00" stop-opacity="0"/>
<stop offset="0.472" stop-color="#84A600" stop-opacity="0.472"/>
<stop offset="1" stop-color="#586E00"/>
</linearGradient>
<linearGradient id="paint40_linear_6471_402" x1="29.8064" y1="30.7666" x2="13.1295" y2="26.6308" gradientUnits="userSpaceOnUse">
<stop offset="0.003" stop-color="#FFE000"/>
<stop offset="0.142" stop-color="#DCDE00"/>
<stop offset="0.274" stop-color="#C3DD00"/>
<stop offset="0.393" stop-color="#B4DC00"/>
<stop offset="0.491" stop-color="#AFDC00"/>
<stop offset="0.556" stop-color="#A1CA00"/>
<stop offset="0.759" stop-color="#7A9900"/>
<stop offset="0.914" stop-color="#617A00"/>
<stop offset="1" stop-color="#586E00"/>
</linearGradient>
<linearGradient id="paint41_linear_6471_402" x1="22.5015" y1="26.4891" x2="20.2567" y2="34.1119" gradientUnits="userSpaceOnUse">
<stop stop-color="#AFDC00" stop-opacity="0"/>
<stop offset="0.472" stop-color="#84A600" stop-opacity="0.472"/>
<stop offset="1" stop-color="#586E00"/>
</linearGradient>
<linearGradient id="paint42_linear_6471_402" x1="32.4136" y1="27.5589" x2="16.0499" y2="28.2709" gradientUnits="userSpaceOnUse">
<stop offset="0.003" stop-color="#FFE000"/>
<stop offset="0.142" stop-color="#DCDE00"/>
<stop offset="0.274" stop-color="#C3DD00"/>
<stop offset="0.393" stop-color="#B4DC00"/>
<stop offset="0.491" stop-color="#AFDC00"/>
<stop offset="0.556" stop-color="#A1CA00"/>
<stop offset="0.759" stop-color="#7A9900"/>
<stop offset="0.914" stop-color="#617A00"/>
<stop offset="1" stop-color="#586E00"/>
</linearGradient>
<linearGradient id="paint43_linear_6471_402" x1="24.5816" y1="26.3168" x2="24.5826" y2="31.4449" gradientUnits="userSpaceOnUse">
<stop stop-color="#AFDC00" stop-opacity="0"/>
<stop offset="0.472" stop-color="#84A600" stop-opacity="0.472"/>
<stop offset="1" stop-color="#586E00"/>
</linearGradient>
<clipPath id="clip0_6471_402">
<rect width="28" height="28" fill="white" transform="translate(14.5728) rotate(31.3628)"/>
</clipPath>
</defs>
</svg>
