<svg width="62" height="70" viewBox="0 0 62 70" fill="none" xmlns="http://www.w3.org/2000/svg">
<path d="M56.4084 49.3349L56.5253 49.2763C57.5384 48.7698 57.9489 47.538 57.4424 46.525C55.03 41.7001 50.4274 38.3307 45.1708 37.4309C45.2913 36.6839 45.3547 35.9181 45.3547 35.1379V27.034C48.8699 26.0717 53.5576 24.1733 53.5576 20.5095C53.5576 17.6935 50.7293 15.4531 45.3547 13.9849V6.15779C45.3547 1.95711 41.2515 -1.00995 37.2513 0.323463C33.2199 1.66727 28.7795 1.66727 24.7425 0.321549C20.7533 -1.00831 16.6449 1.95451 16.6449 6.15806V13.9852C11.2704 15.4536 8.44209 17.6937 8.44209 20.5098C8.44209 24.1702 13.121 26.0696 16.6449 27.0343V35.1381C16.6449 35.9185 16.7085 36.6843 16.8288 37.4312C11.5723 38.3309 6.96977 41.7004 4.55724 46.5253C4.0507 47.5384 4.46126 48.7701 5.47435 49.2766L5.47886 49.2788C2.26214 52.5564 0.239258 57.3933 0.239258 62.2113V67.9495C0.239258 69.0821 1.15746 70.0001 2.2899 70.0001H59.7096C60.8422 70.0001 61.7603 69.0819 61.7603 67.9495V62.4407C61.7603 57.7393 59.6206 52.6894 56.4084 49.3349ZM20.7462 6.15765C20.7462 4.76148 22.1086 3.76658 23.4513 4.21406C28.319 5.83664 33.6805 5.83664 38.5539 4.21215C39.8839 3.76891 41.2532 4.75642 41.2532 6.15751V14.7485C37.7504 15.8502 34.3075 16.408 30.9997 16.408C27.6919 16.408 24.2489 15.8503 20.7462 14.7485V6.15765ZM12.5514 20.5091C12.6962 20.1687 13.8623 19.0114 17.6199 17.9701C18.0602 18.2415 24.1572 20.5094 30.9998 20.5094C37.2896 20.5094 43.5895 18.4573 44.3798 17.9701C48.1373 19.0115 49.3036 20.1686 49.4482 20.5091C49.3089 20.8271 48.1747 21.9954 44.3758 23.0499C40.75 24.0566 35.9995 24.6108 30.9997 24.6108C25.9999 24.6108 21.2496 24.0564 17.6236 23.0499C13.825 21.9954 12.6906 20.8271 12.5514 20.5091ZM41.2533 27.9179V35.1379C41.2533 40.7917 36.6535 45.3913 30.9998 45.3913C25.3461 45.3913 20.7463 40.7916 20.7463 35.1379V27.9179C23.8635 28.4359 27.3665 28.7124 30.9998 28.7124C34.6331 28.7122 38.1361 28.4357 41.2533 27.9179ZM4.34054 65.8984V62.211C4.34054 57.3951 6.82499 53.3512 9.41156 51.2451L12.5434 52.8111V55.645C12.5434 56.2904 12.8473 56.8983 13.3637 57.2856L24.8476 65.8986H4.34054V65.8984ZM16.6449 54.6197V51.5437C16.6449 50.7668 16.2061 50.0569 15.5113 49.7093L9.29207 46.5997C11.2303 43.9185 14.1587 42.0707 17.4279 41.4873L26.093 61.7057L16.6449 54.6197ZM24.6948 48.0318C26.5991 48.9668 28.739 49.4928 30.9997 49.4928C33.2603 49.4928 35.4002 48.9667 37.3046 48.0318L30.9997 62.7432L24.6948 48.0318ZM44.5717 41.4873C47.8409 42.0707 50.7692 43.9183 52.7076 46.5997L46.4884 49.7093C45.7936 50.0567 45.3547 50.7668 45.3547 51.5437V54.6197L35.9067 61.7057L44.5717 41.4873ZM57.659 65.8984H37.1519L48.6358 57.2854C49.1522 56.8981 49.4561 56.2903 49.4561 55.6448V52.8109L52.5058 51.286C55.4996 53.7613 57.659 58.3393 57.659 62.4403V65.8984Z" fill="#FFAF00"/>
</svg>
